<svg xmlns="http://www.w3.org/2000/svg" width="40" height="40" viewBox="0 0 40 40"><path fill="#fff" fill-rule="evenodd" d="M13.543 5.934a1.573 1.573 0 0 0-2.086 0 4.07 4.07 0 0 1-5.207.171v27.79a4.07 4.07 0 0 1 5.207.171 1.573 1.573 0 0 0 2.086 0 4.077 4.077 0 0 1 5.414 0 1.573 1.573 0 0 0 2.086 0 4.077 4.077 0 0 1 5.414 0 1.573 1.573 0 0 0 2.086 0 4.07 4.07 0 0 1 5.207-.171V6.105a4.07 4.07 0 0 1-5.207-.171 1.573 1.573 0 0 0-2.086 0 4.077 4.077 0 0 1-5.414 0 1.573 1.573 0 0 0-2.086 0 4.077 4.077 0 0 1-5.414 0m-3.75-1.868a4.077 4.077 0 0 1 5.414 0 1.573 1.573 0 0 0 2.086 0 4.077 4.077 0 0 1 5.414 0 1.573 1.573 0 0 0 2.086 0 4.077 4.077 0 0 1 5.414 0 1.573 1.573 0 0 0 2.086 0c1.535-1.363 3.957-.273 3.957 1.778V34.16c0 2.047-2.422 3.137-3.957 1.774a1.573 1.573 0 0 0-2.086 0 4.077 4.077 0 0 1-5.414 0 1.573 1.573 0 0 0-2.086 0 4.077 4.077 0 0 1-5.414 0 1.573 1.573 0 0 0-2.086 0 4.077 4.077 0 0 1-5.414 0 1.573 1.573 0 0 0-2.086 0c-1.535 1.363-3.957.273-3.957-1.774V5.844c0-2.051 2.422-3.14 3.957-1.778a1.573 1.573 0 0 0 2.086 0m1.457 10.102c0-.691.559-1.25 1.25-1.25h15a1.251 1.251 0 0 1 0 2.5h-15c-.691 0-1.25-.563-1.25-1.25m0 5.832c0-.691.559-1.25 1.25-1.25h15a1.25 1.25 0 1 1 0 2.5h-15A1.25 1.25 0 0 1 11.25 20m0 5.832c0-.687.559-1.25 1.25-1.25h15a1.251 1.251 0 0 1 0 2.5h-15a1.25 1.25 0 0 1-1.25-1.25m0 0"/></svg>