<svg xmlns="http://www.w3.org/2000/svg" width="40" height="40" viewBox="0 0 40 40"><path fill="#fff" fill-rule="evenodd" d="M28 20c0 1.05-.895 1.906-2 1.906h-4v3.809c0 1.05-.895 1.902-2 1.902s-2-.851-2-1.902v-3.809h-4c-1.105 0-2-.855-2-1.906s.895-1.906 2-1.906h4v-3.809c0-1.05.895-1.902 2-1.902s2 .851 2 1.902v3.809h4c1.105 0 2 .855 2 1.906m-8 15.238c-8.82 0-16-6.836-16-15.238S11.18 4.762 20 4.762 36 11.598 36 20s-7.18 15.238-16 15.238M20 .953C8.953.953 0 9.48 0 20s8.953 19.047 20 19.047S40 30.52 40 20 31.047.953 20 .953"/></svg>