<svg xmlns="http://www.w3.org/2000/svg" width="40" height="40" viewBox="0 0 40 40"><path fill="none" stroke="#fff" stroke-linecap="round" stroke-linejoin="round" stroke-width="2.04" d="M12.098 29.512H5.336a.754.754 0 0 1-.754-.75V17.508c0-.418.34-.754.754-.754h29.328c.414 0 .754.336.754.754v11.254c0 .414-.34.75-.754.75h-6.762"/><path fill="none" stroke="#fff" stroke-linecap="round" stroke-linejoin="round" stroke-width="2.04" d="M12.098 26.195h15.804v8.446H12.098Zm15.804-9.441H12.098V5.359H24.57l3.332 3.336Zm0 0"/><path fill="none" stroke="#fff" stroke-linecap="round" stroke-linejoin="round" stroke-width="2.04" d="M24.895 5.36v3.01h3.007"/><path fill="#fff" d="M33.836 19.082a.624.624 0 1 0-1.251-.001.624.624 0 0 0 1.25.001m-2.515 0a.624.624 0 1 0-1.248-.001.624.624 0 0 0 1.248.001m-2.511 0a.624.624 0 1 0-1.251-.001.624.624 0 0 0 1.25.001m0 0"/></svg>